<?xml version="1.0" encoding="UTF-8"?>
<svg width="400" height="160" viewBox="0 0 400 160" fill="none" xmlns="http://www.w3.org/2000/svg">
    <!-- Background -->
    <rect width="400" height="160" fill="#1f2937"/>
    
    <!-- Timeline Line -->
    <line x1="50" y1="20" x2="50" y2="140" stroke="#2d3748" stroke-width="2"/>
    
    <!-- Milestone Points -->
    <circle cx="50" cy="40" r="8" fill="#6d5aff"/>
    <circle cx="50" cy="80" r="8" fill="#6d5aff"/>
    <circle cx="50" cy="120" r="8" fill="#6d5aff"/>
    
    <!-- Roadmap Items -->
    <g opacity="0.9">
        <!-- Item 1 -->
        <rect x="70" y="20" width="310" height="40" rx="4" fill="#1a1b26"/>
        <rect x="85" y="30" width="60" height="8" rx="2" fill="#a78bfa"/>
        <rect x="85" y="42" width="280" height="8" rx="2" fill="#94a3b8"/>
        
        <!-- Item 2 -->
        <rect x="70" y="70" width="310" height="40" rx="4" fill="#1a1b26"/>
        <rect x="85" y="80" width="60" height="8" rx="2" fill="#a78bfa"/>
        <rect x="85" y="92" width="280" height="8" rx="2" fill="#94a3b8"/>
        
        <!-- Item 3 -->
        <rect x="70" y="120" width="310" height="40" rx="4" fill="#1a1b26"/>
        <rect x="85" y="130" width="60" height="8" rx="2" fill="#a78bfa"/>
        <rect x="85" y="142" width="280" height="8" rx="2" fill="#94a3b8"/>
    </g>
</svg>
